<?xml version="1.0" standalone="no"?><!DOCTYPE svg PUBLIC "-//W3C//DTD SVG 1.1//EN" "http://www.w3.org/Graphics/SVG/1.1/DTD/svg11.dtd"><svg t="1638605150054" class="icon" viewBox="0 0 1024 1024" version="1.1" xmlns="http://www.w3.org/2000/svg" p-id="10684" xmlns:xlink="http://www.w3.org/1999/xlink" width="200" height="200"><defs><style type="text/css"></style></defs><path d="M948.245333 0H75.52C33.877333 0 0.021333 33.066667 0.021333 73.813333v876.288C0 990.890667 33.877333 1024 75.52 1024h872.704c41.749333 0 75.733333-33.109333 75.733333-73.898667V73.834667C1024 33.045333 989.994667 0 948.266667 0z" fill="#007BB5" p-id="10685"></path><path d="M151.744 383.893333h152.021333V872.533333H151.744V383.893333z m76.053333-242.922666a88.106667 88.106667 0 1 1-0.128 176.170666 88.106667 88.106667 0 0 1 0.128-176.170666M399.04 383.893333h145.578667v66.794667h2.090666c20.266667-38.4 69.802667-78.933333 143.701334-78.933333 153.770667 0 182.186667 101.184 182.186666 232.810666V872.533333h-151.850666v-237.653333c0-56.661333-0.981333-129.557333-78.933334-129.557333-79.018667 0-91.093333 61.76-91.093333 125.525333v241.706667h-151.68V383.872z" fill="#FFFFFF" p-id="10686"></path></svg>