<?xml version="1.0" standalone="no"?><!DOCTYPE svg PUBLIC "-//W3C//DTD SVG 1.1//EN" "http://www.w3.org/Graphics/SVG/1.1/DTD/svg11.dtd"><svg t="1638605356607" class="icon" viewBox="0 0 1024 1024" version="1.1" xmlns="http://www.w3.org/2000/svg" p-id="16963" data-spm-anchor-id="a313x.7781069.0.i11" xmlns:xlink="http://www.w3.org/1999/xlink" width="200" height="200"><defs><style type="text/css"></style></defs><path d="M634.705 477.324l-204.762 66.86-178.133 78.623-49.837 13.158c-12.698 12.075-26.005 24.3-40.394 36.679-15.792 13.618-30.493 26.004-41.752 34.972-12.61 9.91-31.153 28.482-40.588 40.246-14.092 17.646-25.218 36.345-30.025 50.764-8.515 26.005-4.302 52.314 12.068 76.62 21.05 30.953 62.995 62.528 111.897 84.038 24.922 10.993 66.867 25.07 98.435 32.963 52.47 13.35 153.998 27.71 209.864 29.876 11.297 0.468 26.465 0.468 27.088 0 1.239-0.741 9.902-17.334 19.968-37.917 34.357-70.115 59.123-135.892 72.585-192.107 8.048-34.046 14.39-79.365 18.543-133.103 1.09-15.013 1.55-65.272 0.623-82.332-1.394-27.852-3.871-50.438-7.736-72.586-0.623-3.248-0.779-6.186-0.467-6.341 0.616-0.468 2.477-1.083 27.703-8.36l-5.103-12.068z m-46.73 27.392c1.855 0 6.802 47.515 8.041 77.54 0.312 6.35 0.156 10.526-0.148 10.526-1.239 0-26.161-14.701-43.955-25.842-15.48-9.754-44.882-29.254-49.525-32.97-1.55-1.083-1.395-1.231 11.296-5.57 21.51-7.277 72.578-23.684 74.284-23.684z m-104.323 34.365c1.394 0 4.947 2.01 13.462 7.269 31.894 19.967 75.219 44.11 93.792 52.165 5.726 2.47 6.341 1.543-6.81 10.518-28.185 19.196-63.306 38.073-106.334 57.113-7.58 3.405-13.922 6.03-14.092 6.03-0.312 0 0.615-3.864 1.854-8.507 10.384-38.57 16.251-77.54 16.563-108.804 0.155-15.48 0.155-15.48 1.55-15.94-0.312 0.156-0.156 0.156 0 0.156z m-21.51 8.203c0.92 0.927 0.304 35.603-0.935 45.038a393.969 393.969 0 0 1-14.234 67.326c-1.706 5.72-3.256 10.518-3.56 10.83-0.623 0.741-21.83-19.968-28.794-28.015-12.068-13.93-21.51-27.86-28.475-41.478-3.56-6.965-9.13-20.583-8.663-21.05 2.47-1.699 84.038-33.274 84.66-32.636z m-101.254 39.772a0.579 0.579 0 0 1 0.468 0.155 29.276 29.276 0 0 1 2.321 5.57c4.948 13.463 16.088 33.275 25.686 45.988 10.525 13.93 24.307 28.786 35.752 38.57 3.708 3.093 7.12 6.037 7.58 6.497 0.935 0.935 1.246 0.742-23.987 10.384-29.247 11.126-61.134 22.252-97.656 34.053q-13.1 4.213-26.154 8.508c-1.394 0.467-0.927-0.304 3.093-6.676 18.106-28.319 45.654-83.882 61.134-123.193 2.633-6.81 5.266-13.619 5.726-15.169 0.623-2.166 1.394-2.967 3.404-4.027a15.124 15.124 0 0 1 2.633-0.616z m-30.952 12.846c0.46 0.312-7.417 16.867-15.168 32.035-15.013 29.254-31.42 58.04-53.405 93.02-3.708 6.038-7.269 11.609-7.736 12.224-0.742 1.083-1.083 0.742-3.56-4.02-5.26-10.384-9.598-23.683-11.92-35.907-2.321-12.075-1.854-33.126 0.779-46.12 2.01-9.599 1.854-9.443 6.498-11.764 19.811-10.058 83.889-40.054 84.505-39.468z m266.978 10.837v6.497c0 34.513-3.71 81.872-9.139 116.392-0.927 6.03-1.698 10.985-1.854 11.126 0 0-4.45-1.238-9.746-2.789a399.517 399.517 0 0 1-71.206-30.485c-15.013-8.203-36.834-21.673-36.211-22.289 0.148-0.155 6.675-3.56 14.234-7.587 30.336-15.784 59.434-32.807 84.66-49.696 9.443-6.342 23.676-16.556 26.777-19.344l2.477-1.855z m-383.8 45.809c0.616 0 0.46 1.239-0.467 6.81-0.616 4.027-1.395 11.451-1.699 16.554-1.239 22.6 2.477 39.312 13.618 62.224 3.093 6.342 5.578 11.608 5.415 11.756-1.083 0.935-103.538 30.96-135.736 39.78-9.598 2.632-17.95 4.954-18.544 5.102-1.083 0.312-1.238 0.164-0.741-2.47 3.56-22.748 20.894-52.47 45.037-77.54 16.103-16.718 28.928-26.465 50.92-39.007 15.791-8.975 40.053-22.438 41.945-23.053 0-0.156 0.155-0.156 0.311-0.156z m241.44 43.176c0.156-0.148 3.872 1.862 8.359 4.495 33.118 19.188 79.239 36.99 118.55 46.12l3.56 0.742-4.954 2.782c-20.583 11.46-88.221 39.623-157.395 65.472-10.065 3.709-19.967 7.417-21.829 8.204s-3.56 1.238-3.56 1.082 2.789-5.57 6.35-12.23c19.343-36.212 38.843-80.322 48.745-110.963 1.247-2.967 2.018-5.57 2.174-5.734z m-24.61 8.055c0.155 0.156-1.084 3.405-2.627 7.113-13.47 32.636-31.115 68.24-53.708 108.189-5.726 10.213-10.525 18.417-10.68 18.417s-4.8-2.789-10.385-6.194c-32.814-20.115-61.905-44.882-80.945-68.869l-2.781-3.405 14.092-3.871c50.438-13.774 93.325-28.631 135.892-46.892 6.038-2.478 10.993-4.488 11.141-4.488z m152.914 53.405c0.156 3.56-7.736 35.447-14.241 58.507-5.415 19.344-10.058 34.513-18.544 61.282-3.708 11.77-6.957 21.51-7.12 21.51a10.525 10.525 0 0 1-2.01-0.46c-45.987-8.367-87.131-19.967-125.827-35.447-10.837-4.332-26.309-11.297-27.236-12.076-0.312-0.311 8.975-4.643 20.768-9.746 70.42-30.804 143.473-65.776 168.543-80.789 2.967-1.862 5.259-2.789 5.726-2.789z m-353.026 12.075c0.305 0.311-19.351 28.63-46.899 67.17-9.598 13.463-20.768 29.247-24.915 35.129s-10.525 15.168-14.092 20.768l-6.505 10.066-6.965-5.882c-8.204-6.81-22.438-21.362-28.787-29.41-13.306-16.555-22.252-34.045-25.842-49.985-1.705-7.417-1.705-11.126-0.155-11.608 2.314-0.623 43.643-10.384 82.332-19.352 21.51-4.947 46.424-10.829 55.4-12.995s16.258-3.871 16.414-3.871z m19.805 7.588l4.954 5.57c22.29 24.915 45.038 43.34 72.586 59.427 4.955 2.79 8.67 5.267 8.36 5.422-1.084 0.742-95.647 34.357-139.446 49.526-24.61 8.663-44.89 15.628-45.037 15.628a26.495 26.495 0 0 1-3.1-2.01l-2.782-2.018 4.487-6.497c14.545-21.05 32.814-44.11 72.586-92.086l27.384-32.977z m123.512 88.37c0.148-0.157 6.958 2.32 15.317 5.421 20.123 7.58 36.063 12.372 57.417 17.802 26.316 6.675 64.39 13.158 86.827 15.012 3.412 0.304 5.266 0.616 4.643 1.083-1.083 0.623-23.832 8.204-40.55 13.463-26.621 8.359-107.87 32.346-174.114 51.386-12.223 3.56-22.748 6.498-23.371 6.676-1.543 0.312-6.676-1.083-6.676-1.706 0-0.304 3.709-5.103 8.203-10.384a918.534 918.534 0 0 0 62.84-84.505c5.103-7.744 9.442-14.093 9.442-14.241z m-27.244 0.741c0.156 0.156-10.836 17.801-30.025 48.13-8.203 12.847-17.334 27.4-20.583 32.503-3.1 4.955-7.743 12.699-10.384 17.06l-4.45 7.892-2.322-0.623c-5.578-1.543-44.733-15.324-55.103-19.5a383.28 383.28 0 0 1-36.063-16.556c-12.379-6.675-27.851-16.562-26.613-16.874 0.304-0.156 21.51-5.882 47.048-12.847 67.787-18.417 105.392-29.098 130.003-36.834 4.495-1.394 8.359-2.477 8.515-2.321z m192.687 45.193h0.155c0.616 1.55-24.477 71.206-33.585 93.169-2.01 4.955-2.782 6.193-3.865 6.038-2.633-0.156-39.007-5.26-61.14-8.508-38.533-5.882-103.226-17.186-119.478-20.895l-3.708-0.741 23.06-5.26c49.525-11.125 73.357-17.178 97.5-24.61a689.948 689.948 0 0 0 91.166-35.128c4.791-2.173 8.819-3.872 9.902-4.027zM423.602 0.008c-3.375-0.453-58.352 19.359-93.792 33.748-47.827 19.5-84.965 38.073-107.877 54.146-8.508 6.038-19.188 16.719-20.887 20.895a14.382 14.382 0 0 0-0.935 5.259l20.769 19.655 49.377 15.792 117.437 21.102 134.342 23.06 1.387-11.608c-0.46 0-0.742-0.155-1.231-0.155l-17.646-2.79-3.56-6.341c-18.261-32.191-38.385-72.126-50.148-99.058-9.124-20.894-17.802-45.03-22.593-62.364C425.612 0.824 425.278 0.223 423.6 0.045z m-2.478 7.899h0.156c0.156 0.148 0.742 4.487 1.394 9.59a322.8 322.8 0 0 0 15.013 65.161c5.726 17.023 5.726 16.096-0.927 14.093-15.792-4.339-86.515-16.563-137.747-23.683-8.203-1.083-15.168-2.166-15.168-2.322-0.623-0.615 36.99-20.3 53.545-28.007 21.206-9.754 79.402-34.053 83.734-34.825zM271.926 77.244l6.037 2.01c32.807 11.126 115.302 26.932 160.807 30.648 5.103 0.467 9.435 0.935 9.59 0.935 0.156 0.148-4.176 2.47-9.746 5.103-21.977 10.985-46.12 24.477-62.84 34.824-4.947 3.093-9.441 5.57-10.057 5.57s-3.872-0.615-7.276-1.083l-6.186-0.927-15.48-15.168c-27.236-26.465-48.598-46.9-56.802-54.636z m-6.187 4.799l21.822 27.243C299.473 124.3 311.55 139 314.181 142.25s4.792 5.882 4.644 6.037c-0.623 0.468-31.575-5.57-47.982-9.286-16.867-3.872-23.832-5.726-34.201-8.975l-8.523-2.789v-2.166c0.156-10.384 13.314-25.849 35.603-41.633l2.017-1.394z m185.432 37.145c0.624 0 1.395 1.395 3.25 5.57 5.258 11.609 21.673 42.873 25.693 48.91 1.238 2.01 3.404 2.166-18.417-1.394-52.493-8.515-69.36-11.311-69.36-11.608a16.318 16.318 0 0 1 3.56-2.322 302.499 302.499 0 0 0 47.204-32.636c3.56-2.967 6.81-5.733 7.418-6.193 0.156-0.312 0.467-0.467 0.623-0.312z" fill="#909CA9" p-id="16964" data-spm-anchor-id="a313x.7781069.0.i10" class="selected"></path><path d="M202.159 106.653s-3.405 5.415-0.149 13.47c2.01 4.947 7.892 10.985 14.546 17.171 0 0 68.869 67.17 77.228 76.769 38.073 43.955 54.636 87.286 56.179 147.033 0.934 38.384-6.342 72.118-24.477 111.259-32.199 70.264-100.134 147.804-204.917 233.852l15.324-5.103c9.902-7.418 23.371-15.324 54.94-32.636 72.889-39.935 154.917-76.613 255.517-114.39 144.86-54.48 383.05-118.246 518.631-138.985l14.093-2.165-2.173-3.405c-12.38-19.196-20.895-31.108-31.108-43.8-29.714-36.84-65.77-66.703-109.88-91.469-60.673-33.897-139.14-60.362-238.502-80.018-18.73-3.708-59.895-10.829-93.325-15.94-70.887-10.984-116.696-18.542-167.148-27.236-18.113-3.1-45.194-7.743-63.15-11.608-9.287-2.017-27.081-6.193-41.01-10.992-11.127-4.332-27.245-8.67-30.65-21.822z m39.897 38.733c0.156-0.155 2.626 0.742 5.882 1.855 5.882 2.01 13.462 4.331 22.445 6.809q10.176 2.803 20.427 5.414c9.286 2.322 17.06 4.45 17.178 4.45 1.083 1.091 16.719 51.076 21.978 70.265 2.01 7.276 3.56 13.47 3.404 13.47-0.156 0.155-1.861-2.478-3.872-6.038-18.105-31.895-46.728-64.227-79.861-90.232a66.8 66.8 0 0 1-7.58-5.993z m76.146 21.043a61.126 61.126 0 0 1 8.36 1.395c26.308 5.881 73.512 14.834 103.693 19.967 5.11 0.742 9.13 1.706 9.13 2.01s-1.854 1.394-4.183 2.633c-5.103 2.626-25.686 14.835-32.495 19.5-17.178 11.452-32.636 23.832-43.8 34.973-4.487 4.494-8.358 8.203-8.358 8.203s-0.927-2.626-1.706-5.882c-5.57-21.51-17.179-53.404-27.704-75.834a66.756 66.756 0 0 1-3.093-7.12c0 0.31 0 0.155 0.156 0.155z m134.03 25.538c0.927 0.311 2.478 5.57 5.57 17.178a253.485 253.485 0 0 1 7.418 70.887c-0.312 6.498-0.623 12.535-0.935 13.314l-0.46 1.543-7.995-2.64c-16.563-5.26-43.488-13.151-66.548-19.656-13.159-3.56-23.84-6.81-23.84-7.114 0-0.934 19.196-20.123 27.4-27.399 15.628-13.774 58.033-46.588 59.427-46.12z m10.681 1.55c0.46-0.467 64.07 10.525 93.013 16.095 21.51 4.176 52.781 10.681 54.635 11.453 0.928 0.311-2.321 2.166-12.69 6.809-40.862 18.417-71.206 34.98-101.373 55.095-7.892 5.267-14.552 9.598-14.708 9.598s-0.304-4.487-0.304-9.902c0-29.41-5.882-59.123-16.719-84.193-1.083-2.515-2.01-4.836-1.854-4.992z m164.515 32.503c0.468 0.46-1.55 13.002-3.404 20.427-5.57 23.06-20.583 57.268-39 89.46-3.25 5.726-6.194 10.384-6.505 10.517s-4.45-2.166-9.28-4.947c-17.957-10.525-38.384-20.435-60.673-29.721-6.186-2.626-11.608-4.8-11.763-5.103-1.083-0.927 48.753-33.897 75.062-49.696 20.895-12.691 54.948-31.575 55.563-30.952z m11.764 1.854c1.395 0 29.558 7.736 44.259 12.075 36.345 10.83 78.163 26.153 105.4 38.533l11.296 5.11-7.892 1.855c-66.548 15.287-123.505 32.932-178.437 55.214-4.45 1.862-8.515 3.412-8.82 3.412s1.24-3.56 3.25-7.9c16.562-35.128 27.235-71.806 29.869-103.1 0.155-2.967 0.615-5.259 1.082-5.259z m-280.44 64.374c0.46-0.46 21.978 4.644 33.586 7.892 17.638 4.955 55.095 17.49 55.095 18.417 0 0.156-4.176 3.71-9.13 8.056-20.302 16.815-39.78 34.616-63.151 57.231-6.965 6.676-12.84 12.076-13.151 12.076s-0.46-0.935-0.312-2.174c3.56-25.997 2.79-59.427-2.165-93.324-0.46-4.331-0.928-8.048-0.772-8.174z m452.083 0.468c0.304 0.311-9.91 16.407-16.407 25.537-9.271 13.307-22.912 30.923-53.708 69.619-16.251 20.427-34.513 43.487-40.55 51.224-6.194 7.736-11.297 14.24-11.453 14.24a53.115 53.115 0 0 1-4.331-6.193 319.81 319.81 0 0 0-62.684-69.18c-4.643-3.872-9.746-8.048-11.452-9.287a17.26 17.26 0 0 1-3.093-2.633c0-0.46 26.309-11.764 46.276-19.804 34.973-14.241 82.644-31.264 118.395-42.279 18.728-5.882 38.696-11.608 39.007-11.296z m11.912 3.093c0.616-0.156 4.332 1.706 8.82 4.331 37.613 21.51 74.447 49.221 103.545 77.696 8.203 8.048 28.475 29.098 28.185 29.254 0 0-7.12 0.616-15.472 1.239-65.16 4.955-148.575 18.721-228.749 38.073-5.414 1.231-10.213 2.321-10.525 2.321s5.726-6.037 13.314-13.314c47.048-45.342 68.565-73.98 93.94-125.055 3.56-7.58 6.675-14.093 6.965-14.545zM478.081 331.07c2.174 0.46 22.252 9.902 37.458 17.49 13.93 6.958 34.86 18.106 35.907 19.033 0.155 0.156-7.277 4.02-16.4 8.515-29.113 14.545-53.998 28.32-80.032 44.103-7.418 4.495-13.619 8.211-13.767 8.211-0.623 0-0.467-0.623 3.709-8.21 13.93-25.375 25.07-55.712 31.42-85.3 0.615-2.321 1.238-3.864 1.698-3.864z m-20.115 3.71c0.467 0.466-4.8 19.5-8.048 29.876a381.055 381.055 0 0 1-27.392 62.832c-2.477 4.331-6.193 10.68-8.204 14.24l-3.871 6.187-8.664-8.352c-10.065-9.754-18.269-15.791-28.786-21.206-4.184-2.166-7.418-4.028-7.418-4.332 0-1.238 26.465-25.218 46.73-42.56 14.552-12.535 45.193-37.146 45.66-36.686z m123.045 50.615l7.588 4.947a589.533 589.533 0 0 1 53.404 39.467c8.82 7.277 25.842 22.6 29.247 26.31l1.854 2.017-12.558 3.56c-70.887 19.648-125.678 37.138-189.593 60.666-7.12 2.633-13.158 4.799-13.625 4.799-0.927 0-1.699 0.742 14.241-13.93 40.862-37.605 77.073-79.09 104.005-119.485l5.422-8.351z m-32.347 8.047c0.304 0.304-20.894 30.174-33.593 47.048-15.168 20.13-42.1 53.857-60.673 75.834-7.736 9.131-14.39 16.719-14.701 16.875-0.467 0.148-0.623-2.174-0.623-5.726 0-18.737-4.792-38.696-13.151-55.72-3.56-7.12-4.183-8.826-3.404-9.597 2.966-2.633 47.974-28.327 76.45-43.643 19.195-10.214 49.213-25.382 49.695-25.07z m-195.638 47.975c0.46 0 4.02 1.855 8.048 4.028a170.241 170.241 0 0 1 26.62 17.95c0.304 0.311-3.708 3.56-8.975 7.417-14.708 10.518-36.99 27.392-49.992 37.761-13.618 10.837-14.093 11.126-12.535 8.82 10.213-15.629 15.317-24.478 20.768-35.752a286.96 286.96 0 0 0 12.995-32.347c1.239-4.45 2.79-7.892 3.1-7.892z m52.158 40.862c0.742-0.156 1.699 1.239 5.875 7.417 8.826 13.159 15.635 30.804 17.341 45.038l0.305 3.1-21.2 8.204c-37.924 14.701-72.896 29.246-96.58 40.053-6.675 3.093-18.26 8.664-25.841 12.38-7.588 3.872-13.774 6.809-13.774 6.675s4.791-3.708 10.673-8.055c46.284-33.578 86.367-70.42 116.392-107.254 3.249-3.864 6.186-7.417 6.498-7.58z m-23.987 5.882c0.615 0.616-17.06 20.583-29.098 32.807-29.87 30.492-59.45 54.324-96.113 77.54-4.643 2.967-8.82 5.57-9.287 5.882-1.083 0.623 0.312-0.927 16.407-18.417 10.214-10.985 17.95-20.272 26.777-31.724 5.874-7.588 6.965-8.67 15.472-14.709 22.756-16.407 75.219-52.002 75.842-51.379z" fill="#A91D22" p-id="16965" data-spm-anchor-id="a313x.7781069.0.i12" class="selected"></path><path d="M548.486 1023.963h3.323v-26.576h8.782v-3.316h-20.887v3.316h8.782v26.576z m20.13-19.967a47.285 47.285 0 0 0-0.192-5.897 16.459 16.459 0 0 0 0.927 3.07l10.199 22.794h1.632l10.228-22.994c0.274-0.741 0.49-1.631 0.95-2.848-0.216 2.366-0.216 4.265-0.216 5.711v20.123h3.538v-29.884h-4.272l-9.25 20.62c-0.215 0.742-0.956 2.181-1.416 3.813h-0.267a21.607 21.607 0 0 0-1.365-3.53l-9.242-20.895h-4.791V1024h3.345v-19.967h0.193z" fill="#231F1F" p-id="16966"></path></svg>